# 3ds Max Wavefront OBJ Exporter v0.97b - (c)2007 guruware
# File Created: 28.03.2014 11:57:19

mtllib Cercle.mtl

#
# object Cercle
#

v  19.685040 0.000000 0.000000
v  19.624357 1.544470 0.000000
v  19.442684 3.079419 0.000000
v  19.141140 4.595381 0.000000
v  18.721586 6.083012 0.000000
v  18.186605 7.533139 0.000000
v  17.539499 8.936821 0.000000
v  16.784256 10.285404 0.000001
v  15.925531 11.570576 0.000001
v  14.968621 12.784411 0.000001
v  13.919423 13.919426 0.000001
v  12.784410 14.968622 0.000001
v  11.570574 15.925533 0.000001
v  10.285402 16.784258 0.000001
v  8.936817 17.539501 0.000001
v  7.533134 18.186607 0.000001
v  6.083007 18.721586 0.000001
v  4.595375 19.141142 0.000001
v  3.079412 19.442686 0.000001
v  1.544463 19.624357 0.000001
v  -0.000008 19.685040 0.000001
v  -1.544479 19.624357 0.000001
v  -3.079428 19.442682 0.000001
v  -4.595391 19.141138 0.000001
v  -6.083022 18.721582 0.000001
v  -7.533149 18.186602 0.000001
v  -8.936831 17.539494 0.000001
v  -10.285415 16.784248 0.000001
v  -11.570586 15.925524 0.000001
v  -12.784421 14.968613 0.000001
v  -13.919436 13.919415 0.000001
v  -14.968631 12.784400 0.000001
v  -15.925541 11.570563 0.000001
v  -16.784264 10.285392 0.000001
v  -17.539505 8.936806 0.000000
v  -18.186611 7.533123 0.000000
v  -18.721590 6.082995 0.000000
v  -19.141146 4.595363 0.000000
v  -19.442686 3.079400 0.000000
v  -19.624359 1.544451 0.000000
v  -19.685040 -0.000020 0.000000
v  -19.624355 -1.544491 0.000000
v  -19.442680 -3.079440 -0.000000
v  -19.141136 -4.595403 -0.000000
v  -18.721579 -6.083034 -0.000000
v  -18.186596 -7.533160 -0.000000
v  -17.539488 -8.936842 -0.000000
v  -16.784243 -10.285426 -0.000000
v  -15.925516 -11.570597 -0.000000
v  -14.968605 -12.784431 -0.000000
v  -13.919406 -13.919443 -0.000001
v  -12.784392 -14.968637 -0.000001
v  -11.570557 -15.925546 -0.000001
v  -10.285384 -16.784267 -0.000001
v  -8.936799 -17.539509 -0.000001
v  -7.533115 -18.186615 -0.000001
v  -6.082987 -18.721592 -0.000001
v  -4.595356 -19.141146 -0.000001
v  -3.079392 -19.442688 -0.000001
v  -1.544443 -19.624359 -0.000001
v  0.000028 -19.685040 -0.000001
v  1.544499 -19.624355 -0.000001
v  3.079448 -19.442680 -0.000001
v  4.595411 -19.141132 -0.000001
v  6.083041 -18.721575 -0.000001
v  7.533168 -18.186592 -0.000001
v  8.936850 -17.539484 -0.000001
v  10.285433 -16.784239 -0.000001
v  11.570602 -15.925511 -0.000001
v  12.784436 -14.968599 -0.000001
v  13.919450 -13.919400 -0.000001
v  14.968645 -12.784383 -0.000000
v  15.925552 -11.570546 -0.000000
v  16.784273 -10.285374 -0.000000
v  17.539515 -8.936788 -0.000000
v  18.186621 -7.533104 -0.000000
v  18.721598 -6.082975 -0.000000
v  19.141150 -4.595343 -0.000000
v  19.442690 -3.079379 -0.000000
v  19.624361 -1.544430 0.000000
v  0.000000 0.000000 0.000000
# 81 vertices

vn 0.000000 -0.000000 1.000000
vn 0.000000 -0.000000 1.000000
vn 0.000000 -0.000000 1.000000
vn 0.000000 -0.000000 1.000000
vn 0.000000 -0.000000 1.000000
vn 0.000000 -0.000000 1.000000
vn 0.000000 -0.000000 1.000000
vn 0.000000 -0.000000 1.000000
vn 0.000000 -0.000000 1.000000
vn 0.000000 -0.000000 1.000000
vn 0.000000 -0.000000 1.000000
vn 0.000000 -0.000000 1.000000
vn 0.000000 -0.000000 1.000000
vn 0.000000 -0.000000 1.000000
vn 0.000000 -0.000000 1.000000
vn 0.000000 -0.000000 1.000000
vn 0.000000 -0.000000 1.000000
vn 0.000000 -0.000000 1.000000
vn 0.000000 -0.000000 1.000000
vn 0.000000 -0.000000 1.000000
vn 0.000000 -0.000000 1.000000
vn 0.000000 -0.000000 1.000000
vn 0.000000 -0.000000 1.000000
vn 0.000000 -0.000000 1.000000
vn 0.000000 -0.000000 1.000000
vn 0.000000 -0.000000 1.000000
vn 0.000000 -0.000000 1.000000
vn 0.000000 -0.000000 1.000000
vn 0.000000 -0.000000 1.000000
vn 0.000000 -0.000000 1.000000
vn 0.000000 -0.000000 1.000000
vn 0.000000 -0.000000 1.000000
vn 0.000000 -0.000000 1.000000
vn 0.000000 -0.000000 1.000000
vn 0.000000 -0.000000 1.000000
vn 0.000000 -0.000000 1.000000
vn 0.000000 -0.000000 1.000000
vn 0.000000 -0.000000 1.000000
vn 0.000000 -0.000000 1.000000
vn 0.000000 -0.000000 1.000000
vn 0.000000 -0.000000 1.000000
vn 0.000000 -0.000000 1.000000
vn 0.000000 -0.000000 1.000000
vn 0.000000 -0.000000 1.000000
vn 0.000000 -0.000000 1.000000
vn 0.000000 -0.000000 1.000000
vn 0.000000 -0.000000 1.000000
vn 0.000000 -0.000000 1.000000
vn 0.000000 -0.000000 1.000000
vn 0.000000 -0.000000 1.000000
vn 0.000000 -0.000000 1.000000
vn 0.000000 -0.000000 1.000000
vn 0.000000 -0.000000 1.000000
vn 0.000000 -0.000000 1.000000
vn 0.000000 -0.000000 1.000000
vn 0.000000 -0.000000 1.000000
vn 0.000000 -0.000000 1.000000
vn 0.000000 -0.000000 1.000000
vn 0.000000 -0.000000 1.000000
vn 0.000000 -0.000000 1.000000
vn 0.000000 -0.000000 1.000000
vn 0.000000 -0.000000 1.000000
vn 0.000000 -0.000000 1.000000
vn 0.000000 -0.000000 1.000000
vn 0.000000 -0.000000 1.000000
vn 0.000000 -0.000000 1.000000
vn 0.000000 -0.000000 1.000000
vn 0.000000 -0.000000 1.000000
vn 0.000000 -0.000000 1.000000
vn 0.000000 -0.000000 1.000000
vn 0.000000 -0.000000 1.000000
vn 0.000000 -0.000000 1.000000
vn 0.000000 -0.000000 1.000000
vn 0.000000 -0.000000 1.000000
vn 0.000000 -0.000000 1.000000
vn 0.000000 -0.000000 1.000000
vn 0.000000 -0.000000 1.000000
vn 0.000000 -0.000000 1.000000
vn 0.000000 -0.000000 1.000000
vn 0.000000 -0.000000 1.000000
vn 0.000000 -0.000000 1.000000
vn 0.000000 -0.000000 1.000000
vn 0.000000 -0.000000 1.000000
vn 0.000000 -0.000000 1.000000
vn 0.000000 -0.000000 1.000000
vn 0.000000 -0.000000 1.000000
vn 0.000000 -0.000000 1.000000
vn 0.000000 -0.000000 1.000000
vn 0.000000 -0.000000 1.000000
vn 0.000000 -0.000000 1.000000
vn 0.000000 -0.000000 1.000000
vn 0.000000 -0.000000 1.000000
vn 0.000000 -0.000000 1.000000
vn 0.000000 -0.000000 1.000000
vn 0.000000 -0.000000 1.000000
vn 0.000000 -0.000000 1.000000
vn 0.000000 -0.000000 1.000000
vn 0.000000 -0.000000 1.000000
vn 0.000000 -0.000000 1.000000
vn 0.000000 -0.000000 1.000000
vn 0.000000 -0.000000 1.000000
vn 0.000000 -0.000000 1.000000
vn 0.000000 -0.000000 1.000000
vn 0.000000 -0.000000 1.000000
vn 0.000000 -0.000000 1.000000
vn 0.000000 -0.000000 1.000000
vn 0.000000 -0.000000 1.000000
vn 0.000000 -0.000000 1.000000
vn 0.000000 -0.000000 1.000000
vn 0.000000 -0.000000 1.000000
vn 0.000000 -0.000000 1.000000
vn 0.000000 -0.000000 1.000000
vn 0.000000 -0.000000 1.000000
vn 0.000000 -0.000000 1.000000
vn 0.000000 -0.000000 1.000000
vn 0.000000 -0.000000 1.000000
vn 0.000000 -0.000000 1.000000
vn 0.000000 -0.000000 1.000000
vn 0.000000 -0.000000 1.000000
vn 0.000000 -0.000000 1.000000
vn 0.000000 -0.000000 1.000000
vn 0.000000 -0.000000 1.000000
vn 0.000000 -0.000000 1.000000
vn 0.000000 -0.000000 1.000000
vn 0.000000 -0.000000 1.000000
vn 0.000000 -0.000000 1.000000
vn 0.000000 -0.000000 1.000000
vn 0.000000 -0.000000 1.000000
vn 0.000000 -0.000000 1.000000
vn 0.000000 -0.000000 1.000000
vn 0.000000 -0.000000 1.000000
vn 0.000000 -0.000000 1.000000
vn 0.000000 -0.000000 1.000000
vn 0.000000 -0.000000 1.000000
vn 0.000000 -0.000000 1.000000
vn 0.000000 -0.000000 1.000000
vn 0.000000 -0.000000 1.000000
vn 0.000000 -0.000000 1.000000
vn 0.000000 -0.000000 1.000000
vn 0.000000 -0.000000 1.000000
vn 0.000000 -0.000000 1.000000
vn 0.000000 -0.000000 1.000000
vn 0.000000 -0.000000 1.000000
vn 0.000000 -0.000000 1.000000
vn 0.000000 -0.000000 1.000000
vn 0.000000 -0.000000 1.000000
vn 0.000000 -0.000000 1.000000
vn 0.000000 -0.000000 1.000000
vn 0.000000 -0.000000 1.000000
vn 0.000000 -0.000000 1.000000
vn 0.000000 -0.000000 1.000000
vn 0.000000 -0.000000 1.000000
vn 0.000000 -0.000000 1.000000
vn 0.000000 -0.000000 1.000000
vn 0.000000 -0.000000 1.000000
vn 0.000000 -0.000000 1.000000
vn 0.000000 -0.000000 1.000000
vn 0.000000 -0.000000 1.000000
vn 0.000000 -0.000000 1.000000
vn 0.000000 -0.000000 1.000000
vn 0.000000 -0.000000 1.000000
vn 0.000000 -0.000000 1.000000
vn 0.000000 -0.000000 1.000000
vn 0.000000 -0.000000 1.000000
vn 0.000000 -0.000000 1.000000
vn 0.000000 -0.000000 1.000000
vn 0.000000 -0.000000 1.000000
vn 0.000000 -0.000000 1.000000
vn 0.000000 -0.000000 1.000000
vn 0.000000 -0.000000 1.000000
vn 0.000000 -0.000000 1.000000
vn 0.000000 -0.000000 1.000000
vn 0.000000 -0.000000 1.000000
vn 0.000000 -0.000000 1.000000
vn 0.000000 -0.000000 1.000000
vn 0.000000 -0.000000 1.000000
vn 0.000000 -0.000000 1.000000
vn 0.000000 -0.000000 1.000000
vn 0.000000 -0.000000 1.000000
vn 0.000000 -0.000000 1.000000
vn 0.000000 -0.000000 1.000000
vn 0.000000 -0.000000 1.000000
vn 0.000000 -0.000000 1.000000
vn 0.000000 -0.000000 1.000000
vn 0.000000 -0.000000 1.000000
vn 0.000000 -0.000000 1.000000
vn 0.000000 -0.000000 1.000000
vn 0.000000 -0.000000 1.000000
vn 0.000000 -0.000000 1.000000
vn 0.000000 -0.000000 1.000000
vn 0.000000 -0.000000 1.000000
vn 0.000000 -0.000000 1.000000
vn 0.000000 -0.000000 1.000000
vn 0.000000 -0.000000 1.000000
vn 0.000000 -0.000000 1.000000
vn 0.000000 -0.000000 1.000000
vn 0.000000 -0.000000 1.000000
vn 0.000000 -0.000000 1.000000
vn 0.000000 -0.000000 1.000000
vn 0.000000 -0.000000 1.000000
vn 0.000000 -0.000000 1.000000
vn 0.000000 -0.000000 1.000000
vn 0.000000 -0.000000 1.000000
vn 0.000000 -0.000000 1.000000
vn 0.000000 -0.000000 1.000000
vn 0.000000 -0.000000 1.000000
vn 0.000000 -0.000000 1.000000
vn 0.000000 -0.000000 1.000000
vn 0.000000 -0.000000 1.000000
vn 0.000000 -0.000000 1.000000
vn 0.000000 -0.000000 1.000000
vn 0.000000 -0.000000 1.000000
vn 0.000000 -0.000000 1.000000
vn 0.000000 -0.000000 1.000000
vn 0.000000 -0.000000 1.000000
vn 0.000000 -0.000000 1.000000
vn 0.000000 -0.000000 1.000000
vn 0.000000 -0.000000 1.000000
vn 0.000000 -0.000000 1.000000
vn 0.000000 -0.000000 1.000000
vn 0.000000 -0.000000 1.000000
vn 0.000000 -0.000000 1.000000
vn 0.000000 -0.000000 1.000000
vn 0.000000 -0.000000 1.000000
vn 0.000000 -0.000000 1.000000
vn 0.000000 -0.000000 1.000000
vn 0.000000 -0.000000 1.000000
vn 0.000000 -0.000000 1.000000
vn 0.000000 -0.000000 1.000000
vn 0.000000 -0.000000 1.000000
vn 0.000000 -0.000000 1.000000
vn 0.000000 -0.000000 1.000000
vn 0.000000 -0.000000 1.000000
vn 0.000000 -0.000000 1.000000
vn 0.000000 -0.000000 1.000000
vn 0.000000 -0.000000 1.000000
vn 0.000000 -0.000000 1.000000
vn 0.000000 -0.000000 1.000000
vn 0.000000 -0.000000 1.000000
vn 0.000000 -0.000000 1.000000
# 240 vertex normals

vt 1.000000 0.500000 0.000000
vt 0.998459 0.539229 0.000000
vt 0.993844 0.578217 0.000000
vt 0.986185 0.616723 0.000000
vt 0.975528 0.654508 0.000000
vt 0.961940 0.691342 0.000000
vt 0.945503 0.726995 0.000000
vt 0.926320 0.761249 0.000000
vt 0.904509 0.793893 0.000000
vt 0.880203 0.824724 0.000000
vt 0.853553 0.853553 0.000000
vt 0.824724 0.880203 0.000000
vt 0.793893 0.904508 0.000000
vt 0.761249 0.926320 0.000000
vt 0.726995 0.945503 0.000000
vt 0.691342 0.961940 0.000000
vt 0.654508 0.975528 0.000000
vt 0.616723 0.986185 0.000000
vt 0.578217 0.993844 0.000000
vt 0.539229 0.998459 0.000000
vt 0.500000 1.000000 0.000000
vt 0.460770 0.998459 0.000000
vt 0.421783 0.993844 0.000000
vt 0.383277 0.986185 0.000000
vt 0.345491 0.975528 0.000000
vt 0.308658 0.961940 0.000000
vt 0.273005 0.945503 0.000000
vt 0.238751 0.926320 0.000000
vt 0.206107 0.904508 0.000000
vt 0.175276 0.880203 0.000000
vt 0.146446 0.853553 0.000000
vt 0.119797 0.824724 0.000000
vt 0.095491 0.793892 0.000000
vt 0.073680 0.761249 0.000000
vt 0.054497 0.726995 0.000000
vt 0.038060 0.691341 0.000000
vt 0.024472 0.654508 0.000000
vt 0.013815 0.616722 0.000000
vt 0.006156 0.578217 0.000000
vt 0.001541 0.539229 0.000000
vt 0.000000 0.500000 0.000000
vt 0.001541 0.460770 0.000000
vt 0.006156 0.421782 0.000000
vt 0.013815 0.383277 0.000000
vt 0.024472 0.345491 0.000000
vt 0.038060 0.308658 0.000000
vt 0.054497 0.273004 0.000000
vt 0.073680 0.238750 0.000000
vt 0.095492 0.206107 0.000000
vt 0.119797 0.175276 0.000000
vt 0.146447 0.146446 0.000000
vt 0.175276 0.119797 0.000000
vt 0.206108 0.095491 0.000000
vt 0.238751 0.073680 0.000000
vt 0.273005 0.054496 0.000000
vt 0.308659 0.038060 0.000000
vt 0.345492 0.024472 0.000000
vt 0.383278 0.013815 0.000000
vt 0.421783 0.006156 0.000000
vt 0.460771 0.001541 0.000000
vt 0.500001 0.000000 0.000000
vt 0.539230 0.001541 0.000000
vt 0.578218 0.006156 0.000000
vt 0.616723 0.013815 0.000000
vt 0.654509 0.024472 0.000000
vt 0.691342 0.038061 0.000000
vt 0.726996 0.054497 0.000000
vt 0.761250 0.073680 0.000000
vt 0.793893 0.095492 0.000000
vt 0.824725 0.119797 0.000000
vt 0.853554 0.146447 0.000000
vt 0.880204 0.175277 0.000000
vt 0.904509 0.206108 0.000000
vt 0.926321 0.238751 0.000000
vt 0.945504 0.273005 0.000000
vt 0.961940 0.308659 0.000000
vt 0.975529 0.345492 0.000000
vt 0.986185 0.383278 0.000000
vt 0.993844 0.421784 0.000000
vt 0.998459 0.460771 0.000000
vt 0.500000 0.500000 0.000000
# 81 texture coords

g Cercle
usemtl wire_028149177
s 1
f 1/1/1 2/2/2 81/81/3 
f 2/2/4 3/3/5 81/81/6 
f 3/3/7 4/4/8 81/81/9 
f 4/4/10 5/5/11 81/81/12 
f 5/5/13 6/6/14 81/81/15 
f 6/6/16 7/7/17 81/81/18 
f 7/7/19 8/8/20 81/81/21 
f 8/8/22 9/9/23 81/81/24 
f 9/9/25 10/10/26 81/81/27 
f 10/10/28 11/11/29 81/81/30 
f 11/11/31 12/12/32 81/81/33 
f 12/12/34 13/13/35 81/81/36 
f 13/13/37 14/14/38 81/81/39 
f 14/14/40 15/15/41 81/81/42 
f 15/15/43 16/16/44 81/81/45 
f 16/16/46 17/17/47 81/81/48 
f 17/17/49 18/18/50 81/81/51 
f 18/18/52 19/19/53 81/81/54 
f 19/19/55 20/20/56 81/81/57 
f 20/20/58 21/21/59 81/81/60 
f 21/21/61 22/22/62 81/81/63 
f 22/22/64 23/23/65 81/81/66 
f 23/23/67 24/24/68 81/81/69 
f 24/24/70 25/25/71 81/81/72 
f 25/25/73 26/26/74 81/81/75 
f 26/26/76 27/27/77 81/81/78 
f 27/27/79 28/28/80 81/81/81 
f 28/28/82 29/29/83 81/81/84 
f 29/29/85 30/30/86 81/81/87 
f 30/30/88 31/31/89 81/81/90 
f 31/31/91 32/32/92 81/81/93 
f 32/32/94 33/33/95 81/81/96 
f 33/33/97 34/34/98 81/81/99 
f 34/34/100 35/35/101 81/81/102 
f 35/35/103 36/36/104 81/81/105 
f 36/36/106 37/37/107 81/81/108 
f 37/37/109 38/38/110 81/81/111 
f 38/38/112 39/39/113 81/81/114 
f 39/39/115 40/40/116 81/81/117 
f 40/40/118 41/41/119 81/81/120 
f 41/41/121 42/42/122 81/81/123 
f 42/42/124 43/43/125 81/81/126 
f 43/43/127 44/44/128 81/81/129 
f 44/44/130 45/45/131 81/81/132 
f 45/45/133 46/46/134 81/81/135 
f 46/46/136 47/47/137 81/81/138 
f 47/47/139 48/48/140 81/81/141 
f 48/48/142 49/49/143 81/81/144 
f 49/49/145 50/50/146 81/81/147 
f 50/50/148 51/51/149 81/81/150 
f 51/51/151 52/52/152 81/81/153 
f 52/52/154 53/53/155 81/81/156 
f 53/53/157 54/54/158 81/81/159 
f 54/54/160 55/55/161 81/81/162 
f 55/55/163 56/56/164 81/81/165 
f 56/56/166 57/57/167 81/81/168 
f 57/57/169 58/58/170 81/81/171 
f 58/58/172 59/59/173 81/81/174 
f 59/59/175 60/60/176 81/81/177 
f 60/60/178 61/61/179 81/81/180 
f 61/61/181 62/62/182 81/81/183 
f 62/62/184 63/63/185 81/81/186 
f 63/63/187 64/64/188 81/81/189 
f 64/64/190 65/65/191 81/81/192 
f 65/65/193 66/66/194 81/81/195 
f 66/66/196 67/67/197 81/81/198 
f 67/67/199 68/68/200 81/81/201 
f 68/68/202 69/69/203 81/81/204 
f 69/69/205 70/70/206 81/81/207 
f 70/70/208 71/71/209 81/81/210 
f 71/71/211 72/72/212 81/81/213 
f 72/72/214 73/73/215 81/81/216 
f 73/73/217 74/74/218 81/81/219 
f 74/74/220 75/75/221 81/81/222 
f 75/75/223 76/76/224 81/81/225 
f 76/76/226 77/77/227 81/81/228 
f 77/77/229 78/78/230 81/81/231 
f 78/78/232 79/79/233 81/81/234 
f 79/79/235 80/80/236 81/81/237 
f 80/80/238 1/1/239 81/81/240 
# 0 polygons - 80 triangles

